<svg id="Layer_1" data-name="Layer 1" xmlns="http://www.w3.org/2000/svg" viewBox="0 0 100 100"><defs><style>.cls-1{fill:#231f20;}</style></defs><title>Artboard 96</title><path class="cls-1" d="M49.91,0A49.9,49.9,0,1,0,99.81,49.91,50,50,0,0,0,49.91,0Zm0,95.57A45.67,45.67,0,1,1,95.57,49.91,45.72,45.72,0,0,1,49.91,95.57Z"/><path class="cls-1" d="M30.07,49.53a9.18,9.18,0,1,1,9.18-9.18A9.19,9.19,0,0,1,30.07,49.53Zm0-14.12A4.94,4.94,0,1,0,35,40.35,4.95,4.95,0,0,0,30.07,35.41Z"/><path class="cls-1" d="M70.25,49.53a9.18,9.18,0,1,1,9.18-9.18A9.19,9.19,0,0,1,70.25,49.53Zm0-14.12a4.94,4.94,0,1,0,4.94,4.94A4.95,4.95,0,0,0,70.25,35.41Z"/><path class="cls-1" d="M49.91,62.24A17,17,0,0,1,66.86,79.19v2.12H33V79.19A17,17,0,0,1,49.91,62.24ZM62.44,77.07a12.71,12.71,0,0,0-25.07,0Z"/></svg>